<svg xmlns="http://www.w3.org/2000/svg" xmlns:xlink="http://www.w3.org/1999/xlink" width="500" zoomAndPan="magnify" viewBox="0 0 375 374.999991" height="500" preserveAspectRatio="xMidYMid meet" version="1.0"><defs><g/><clipPath id="607eab70e9"><path d="M 43.375 187.5 L 331.625 187.5 L 331.625 205.726562 L 43.375 205.726562 Z M 43.375 187.5 " clip-rule="nonzero"/></clipPath></defs><rect x="-37.5" width="450" fill="#ffffff" y="-37.499999" height="449.999989" fill-opacity="1"/><rect x="-37.5" width="450" fill="#e4e2dd" y="-37.499999" height="449.999989" fill-opacity="1"/><g fill="#231f20" fill-opacity="1"><g transform="translate(100.948159, 240.262688)"><g><path d="M 37.515625 1.3125 C 31.679688 1.3125 26.539062 0.265625 22.09375 -1.828125 C 17.644531 -3.921875 14.023438 -6.492188 11.234375 -9.546875 C 8.453125 -12.597656 6.535156 -15.5625 5.484375 -18.4375 C 4.878906 -20.351562 5.207031 -21.703125 6.46875 -22.484375 C 7.726562 -23.265625 9.015625 -23.046875 10.328125 -21.828125 C 13.378906 -18.691406 16.863281 -16.1875 20.78125 -14.3125 C 24.707031 -12.4375 29.066406 -11.5 33.859375 -11.5 C 38.828125 -11.5 43.117188 -12.828125 46.734375 -15.484375 C 50.347656 -18.148438 52.15625 -22.140625 52.15625 -27.453125 C 52.15625 -32.859375 50.128906 -37.085938 46.078125 -40.140625 C 42.023438 -43.191406 35.992188 -45.238281 27.984375 -46.28125 C 25.972656 -46.539062 24.945312 -47.476562 24.90625 -49.09375 C 24.863281 -50.707031 25.410156 -51.992188 26.546875 -52.953125 C 31.335938 -56.960938 35.710938 -60.835938 39.671875 -64.578125 C 43.640625 -68.328125 47.320312 -72.425781 50.71875 -76.875 C 47.144531 -77.21875 43.3125 -77.390625 39.21875 -77.390625 C 35.125 -77.390625 31.289062 -77.257812 27.71875 -77 C 25.363281 -76.914062 23.441406 -76.566406 21.953125 -75.953125 C 20.472656 -75.347656 19.082031 -74.257812 17.78125 -72.6875 C 16.46875 -71.289062 15.460938 -70.113281 14.765625 -69.15625 C 14.078125 -68.195312 13.25 -67.71875 12.28125 -67.71875 C 11.15625 -67.71875 10.414062 -68.195312 10.0625 -69.15625 C 9.71875 -70.113281 9.585938 -71.203125 9.671875 -72.421875 C 9.765625 -74.515625 10.003906 -76.691406 10.390625 -78.953125 C 10.785156 -81.222656 11.285156 -83.363281 11.890625 -85.375 C 12.328125 -86.851562 12.875 -88.023438 13.53125 -88.890625 C 14.1875 -89.765625 15.253906 -90.421875 16.734375 -90.859375 C 18.210938 -91.296875 20.390625 -91.515625 23.265625 -91.515625 L 65.375 -91.515625 C 67.289062 -91.515625 68.53125 -90.945312 69.09375 -89.8125 C 69.65625 -88.675781 69.375 -87.367188 68.25 -85.890625 C 64.40625 -80.484375 60.175781 -75.1875 55.5625 -70 C 50.945312 -64.820312 46.328125 -60.050781 41.703125 -55.6875 C 45.359375 -55.34375 48.972656 -54.535156 52.546875 -53.265625 C 56.128906 -52.003906 59.398438 -50.285156 62.359375 -48.109375 C 65.328125 -45.929688 67.703125 -43.226562 69.484375 -40 C 71.273438 -36.78125 72.171875 -32.988281 72.171875 -28.625 C 72.171875 -23.3125 70.796875 -18.363281 68.046875 -13.78125 C 65.296875 -9.207031 61.347656 -5.546875 56.203125 -2.796875 C 51.066406 -0.0546875 44.835938 1.3125 37.515625 1.3125 Z M 37.515625 1.3125 "/></g></g></g><g fill="#231f20" fill-opacity="1"><g transform="translate(174.289917, 240.262688)"><g><path d="M 11.765625 -91.515625 L 43.015625 -91.515625 C 52.078125 -91.515625 59.851562 -90.25 66.34375 -87.71875 C 72.84375 -85.195312 78.140625 -81.820312 82.234375 -77.59375 C 86.328125 -73.363281 89.351562 -68.613281 91.3125 -63.34375 C 93.28125 -58.070312 94.265625 -52.734375 94.265625 -47.328125 C 94.265625 -40.878906 93.238281 -34.800781 91.1875 -29.09375 C 89.132812 -23.382812 86.082031 -18.347656 82.03125 -13.984375 C 77.976562 -9.628906 72.96875 -6.207031 67 -3.71875 C 61.03125 -1.238281 54.125 0 46.28125 0 L 11.765625 0 C 9.234375 0 7.398438 -0.257812 6.265625 -0.78125 C 5.140625 -1.300781 4.578125 -2.257812 4.578125 -3.65625 C 4.578125 -5.050781 4.925781 -6.097656 5.625 -6.796875 C 6.320312 -7.492188 7.171875 -8.144531 8.171875 -8.75 C 9.171875 -9.363281 10.101562 -10.210938 10.96875 -11.296875 C 11.84375 -12.390625 12.414062 -13.984375 12.6875 -16.078125 C 12.851562 -16.859375 12.957031 -17.707031 13 -18.625 C 13.050781 -19.539062 13.078125 -20.738281 13.078125 -22.21875 L 13.078125 -69.296875 C 13.078125 -70.773438 13.050781 -71.96875 13 -72.875 C 12.957031 -73.789062 12.851562 -74.644531 12.6875 -75.4375 C 12.414062 -77.53125 11.84375 -79.117188 10.96875 -80.203125 C 10.101562 -81.296875 9.171875 -82.144531 8.171875 -82.75 C 7.171875 -83.363281 6.320312 -84.019531 5.625 -84.71875 C 4.925781 -85.414062 4.578125 -86.460938 4.578125 -87.859375 C 4.578125 -89.242188 5.140625 -90.195312 6.265625 -90.71875 C 7.398438 -91.25 9.234375 -91.515625 11.765625 -91.515625 Z M 44.71875 -7.71875 C 52.03125 -7.71875 57.910156 -9.109375 62.359375 -11.890625 C 66.804688 -14.679688 70.007812 -18.515625 71.96875 -23.390625 C 73.925781 -28.273438 74.90625 -33.769531 74.90625 -39.875 C 74.90625 -48.238281 73.398438 -55.734375 70.390625 -62.359375 C 67.390625 -68.984375 63.207031 -74.234375 57.84375 -78.109375 C 52.488281 -81.992188 46.238281 -83.9375 39.09375 -83.9375 C 36.300781 -83.9375 34.335938 -83.585938 33.203125 -82.890625 C 32.066406 -82.191406 31.5 -80.617188 31.5 -78.171875 L 31.5 -15.6875 C 31.5 -14.03125 31.804688 -12.613281 32.421875 -11.4375 C 33.035156 -10.257812 34.300781 -9.34375 36.21875 -8.6875 C 38.132812 -8.039062 40.96875 -7.71875 44.71875 -7.71875 Z M 44.71875 -7.71875 "/></g></g></g><g clip-path="url(#607eab70e9)"><path fill="#e4e2dd" d="M 43.375 187.5 L 331.636719 187.5 L 331.636719 205.726562 L 43.375 205.726562 Z M 43.375 187.5 " fill-opacity="1" fill-rule="nonzero"/></g><g fill="#231f20" fill-opacity="0.4"><g transform="translate(142.193441, 200.13526)"><g><path d="M 3.953125 0.21875 C 3.285156 0.21875 2.6875 0.125 2.15625 -0.0625 C 1.632812 -0.25 1.207031 -0.507812 0.875 -0.84375 C 0.550781 -1.1875 0.34375 -1.578125 0.25 -2.015625 L 1.46875 -2.359375 C 1.507812 -2.035156 1.632812 -1.753906 1.84375 -1.515625 C 2.0625 -1.273438 2.347656 -1.082031 2.703125 -0.9375 C 3.054688 -0.800781 3.460938 -0.734375 3.921875 -0.734375 C 4.316406 -0.734375 4.671875 -0.785156 4.984375 -0.890625 C 5.296875 -0.992188 5.539062 -1.140625 5.71875 -1.328125 C 5.90625 -1.523438 6 -1.75 6 -2 C 6 -2.238281 5.925781 -2.4375 5.78125 -2.59375 C 5.632812 -2.757812 5.441406 -2.882812 5.203125 -2.96875 C 4.960938 -3.050781 4.695312 -3.09375 4.40625 -3.09375 L 3.21875 -3.109375 L 3.21875 -3.796875 L 4.15625 -3.8125 C 4.632812 -3.820312 4.988281 -3.921875 5.21875 -4.109375 C 5.457031 -4.304688 5.578125 -4.539062 5.578125 -4.8125 C 5.578125 -5.125 5.421875 -5.378906 5.109375 -5.578125 C 4.796875 -5.785156 4.398438 -5.890625 3.921875 -5.890625 C 3.546875 -5.890625 3.210938 -5.828125 2.921875 -5.703125 C 2.628906 -5.578125 2.390625 -5.40625 2.203125 -5.1875 C 2.023438 -4.976562 1.914062 -4.726562 1.875 -4.4375 L 0.625 -4.71875 C 0.695312 -5.144531 0.882812 -5.515625 1.1875 -5.828125 C 1.5 -6.140625 1.890625 -6.382812 2.359375 -6.5625 C 2.835938 -6.738281 3.367188 -6.828125 3.953125 -6.828125 C 4.515625 -6.828125 5.015625 -6.742188 5.453125 -6.578125 C 5.890625 -6.421875 6.234375 -6.203125 6.484375 -5.921875 C 6.734375 -5.640625 6.859375 -5.304688 6.859375 -4.921875 C 6.859375 -4.628906 6.757812 -4.347656 6.5625 -4.078125 C 6.375 -3.816406 6.109375 -3.632812 5.765625 -3.53125 L 5.765625 -3.5 C 6.242188 -3.382812 6.617188 -3.179688 6.890625 -2.890625 C 7.160156 -2.597656 7.289062 -2.265625 7.28125 -1.890625 C 7.28125 -1.472656 7.132812 -1.101562 6.84375 -0.78125 C 6.5625 -0.46875 6.164062 -0.222656 5.65625 -0.046875 C 5.15625 0.128906 4.585938 0.21875 3.953125 0.21875 Z M 3.953125 0.21875 "/></g></g></g><g fill="#231f20" fill-opacity="0.4"><g transform="translate(155.524325, 200.13526)"><g><path d="M 0.46875 0 L 0.46875 -6.6875 L 4.65625 -6.6875 C 5.925781 -6.6875 6.898438 -6.394531 7.578125 -5.8125 C 8.253906 -5.238281 8.59375 -4.410156 8.59375 -3.328125 C 8.59375 -2.265625 8.253906 -1.441406 7.578125 -0.859375 C 6.898438 -0.285156 5.925781 0 4.65625 0 Z M 1.765625 -0.984375 L 4.546875 -0.984375 C 5.429688 -0.984375 6.113281 -1.1875 6.59375 -1.59375 C 7.070312 -2 7.3125 -2.578125 7.3125 -3.328125 C 7.3125 -4.085938 7.070312 -4.664062 6.59375 -5.0625 C 6.113281 -5.46875 5.429688 -5.671875 4.546875 -5.671875 L 1.765625 -5.671875 Z M 1.765625 -0.984375 "/></g></g></g><g fill="#231f20" fill-opacity="0.4"><g transform="translate(170.144386, 200.13526)"><g><path d="M 0.46875 0 L 0.46875 -6.6875 L 7.109375 -6.6875 L 7.109375 -5.71875 L 1.75 -5.71875 L 1.75 -3.875 L 6.734375 -3.875 L 6.734375 -3 L 1.75 -3 L 1.75 -0.953125 L 7.203125 -0.953125 L 7.203125 0 Z M 0.46875 0 "/></g></g></g><g fill="#231f20" fill-opacity="0.4"><g transform="translate(183.211792, 200.13526)"><g><path d="M 0.03125 0 L 3.515625 -6.6875 L 5.046875 -6.6875 L 8.484375 0 L 7.109375 0 L 6.34375 -1.453125 L 2.171875 -1.453125 L 1.40625 0 Z M 2.546875 -2.375 L 5.96875 -2.375 L 4.28125 -5.734375 L 4.265625 -5.734375 Z M 2.546875 -2.375 "/></g></g></g><g fill="#231f20" fill-opacity="0.4"><g transform="translate(197.408399, 200.13526)"><g><path d="M 0.46875 0 L 0.46875 -6.6875 L 1.78125 -6.6875 L 1.78125 -1.03125 L 6.0625 -1.03125 L 6.0625 0 Z M 0.46875 0 "/></g></g></g><g fill="#231f20" fill-opacity="0.4"><g transform="translate(209.21485, 200.13526)"><g><path d="M 0.46875 0 L 0.46875 -6.6875 L 1.765625 -6.6875 L 1.765625 0 Z M 0.46875 0 "/></g></g></g><g fill="#231f20" fill-opacity="0.4"><g transform="translate(217.134934, 200.13526)"><g><path d="M 3.046875 0 L 3.046875 -5.65625 L 0.0625 -5.65625 L 0.0625 -6.6875 L 7.359375 -6.6875 L 7.359375 -5.65625 L 4.359375 -5.65625 L 4.359375 0 Z M 3.046875 0 "/></g></g></g><g fill="#231f20" fill-opacity="0.4"><g transform="translate(230.221155, 200.13526)"><g><path d="M 3.3125 0 L 3.3125 -2.421875 L -0.015625 -6.6875 L 1.5 -6.6875 L 3.96875 -3.421875 L 6.40625 -6.6875 L 7.90625 -6.6875 L 4.625 -2.421875 L 4.625 0 Z M 3.3125 0 "/></g></g></g><g fill="#231f20" fill-opacity="1"><g transform="translate(141.777118, 199.718936)"><g><path d="M 3.953125 0.21875 C 3.285156 0.21875 2.6875 0.125 2.15625 -0.0625 C 1.632812 -0.25 1.207031 -0.507812 0.875 -0.84375 C 0.550781 -1.1875 0.34375 -1.578125 0.25 -2.015625 L 1.46875 -2.359375 C 1.507812 -2.035156 1.632812 -1.753906 1.84375 -1.515625 C 2.0625 -1.273438 2.347656 -1.082031 2.703125 -0.9375 C 3.054688 -0.800781 3.460938 -0.734375 3.921875 -0.734375 C 4.316406 -0.734375 4.671875 -0.785156 4.984375 -0.890625 C 5.296875 -0.992188 5.539062 -1.140625 5.71875 -1.328125 C 5.90625 -1.523438 6 -1.75 6 -2 C 6 -2.238281 5.925781 -2.4375 5.78125 -2.59375 C 5.632812 -2.757812 5.441406 -2.882812 5.203125 -2.96875 C 4.960938 -3.050781 4.695312 -3.09375 4.40625 -3.09375 L 3.21875 -3.109375 L 3.21875 -3.796875 L 4.15625 -3.8125 C 4.632812 -3.820312 4.988281 -3.921875 5.21875 -4.109375 C 5.457031 -4.304688 5.578125 -4.539062 5.578125 -4.8125 C 5.578125 -5.125 5.421875 -5.378906 5.109375 -5.578125 C 4.796875 -5.785156 4.398438 -5.890625 3.921875 -5.890625 C 3.546875 -5.890625 3.210938 -5.828125 2.921875 -5.703125 C 2.628906 -5.578125 2.390625 -5.40625 2.203125 -5.1875 C 2.023438 -4.976562 1.914062 -4.726562 1.875 -4.4375 L 0.625 -4.71875 C 0.695312 -5.144531 0.882812 -5.515625 1.1875 -5.828125 C 1.5 -6.140625 1.890625 -6.382812 2.359375 -6.5625 C 2.835938 -6.738281 3.367188 -6.828125 3.953125 -6.828125 C 4.515625 -6.828125 5.015625 -6.742188 5.453125 -6.578125 C 5.890625 -6.421875 6.234375 -6.203125 6.484375 -5.921875 C 6.734375 -5.640625 6.859375 -5.304688 6.859375 -4.921875 C 6.859375 -4.628906 6.757812 -4.347656 6.5625 -4.078125 C 6.375 -3.816406 6.109375 -3.632812 5.765625 -3.53125 L 5.765625 -3.5 C 6.242188 -3.382812 6.617188 -3.179688 6.890625 -2.890625 C 7.160156 -2.597656 7.289062 -2.265625 7.28125 -1.890625 C 7.28125 -1.472656 7.132812 -1.101562 6.84375 -0.78125 C 6.5625 -0.46875 6.164062 -0.222656 5.65625 -0.046875 C 5.15625 0.128906 4.585938 0.21875 3.953125 0.21875 Z M 3.953125 0.21875 "/></g></g></g><g fill="#231f20" fill-opacity="1"><g transform="translate(155.108002, 199.718936)"><g><path d="M 0.46875 0 L 0.46875 -6.6875 L 4.65625 -6.6875 C 5.925781 -6.6875 6.898438 -6.394531 7.578125 -5.8125 C 8.253906 -5.238281 8.59375 -4.410156 8.59375 -3.328125 C 8.59375 -2.265625 8.253906 -1.441406 7.578125 -0.859375 C 6.898438 -0.285156 5.925781 0 4.65625 0 Z M 1.765625 -0.984375 L 4.546875 -0.984375 C 5.429688 -0.984375 6.113281 -1.1875 6.59375 -1.59375 C 7.070312 -2 7.3125 -2.578125 7.3125 -3.328125 C 7.3125 -4.085938 7.070312 -4.664062 6.59375 -5.0625 C 6.113281 -5.46875 5.429688 -5.671875 4.546875 -5.671875 L 1.765625 -5.671875 Z M 1.765625 -0.984375 "/></g></g></g><g fill="#231f20" fill-opacity="1"><g transform="translate(169.728063, 199.718936)"><g><path d="M 0.46875 0 L 0.46875 -6.6875 L 7.109375 -6.6875 L 7.109375 -5.71875 L 1.75 -5.71875 L 1.75 -3.875 L 6.734375 -3.875 L 6.734375 -3 L 1.75 -3 L 1.75 -0.953125 L 7.203125 -0.953125 L 7.203125 0 Z M 0.46875 0 "/></g></g></g><g fill="#231f20" fill-opacity="1"><g transform="translate(182.795469, 199.718936)"><g><path d="M 0.03125 0 L 3.515625 -6.6875 L 5.046875 -6.6875 L 8.484375 0 L 7.109375 0 L 6.34375 -1.453125 L 2.171875 -1.453125 L 1.40625 0 Z M 2.546875 -2.375 L 5.96875 -2.375 L 4.28125 -5.734375 L 4.265625 -5.734375 Z M 2.546875 -2.375 "/></g></g></g><g fill="#231f20" fill-opacity="1"><g transform="translate(196.992076, 199.718936)"><g><path d="M 0.46875 0 L 0.46875 -6.6875 L 1.78125 -6.6875 L 1.78125 -1.03125 L 6.0625 -1.03125 L 6.0625 0 Z M 0.46875 0 "/></g></g></g><g fill="#231f20" fill-opacity="1"><g transform="translate(208.798527, 199.718936)"><g><path d="M 0.46875 0 L 0.46875 -6.6875 L 1.765625 -6.6875 L 1.765625 0 Z M 0.46875 0 "/></g></g></g><g fill="#231f20" fill-opacity="1"><g transform="translate(216.71861, 199.718936)"><g><path d="M 3.046875 0 L 3.046875 -5.65625 L 0.0625 -5.65625 L 0.0625 -6.6875 L 7.359375 -6.6875 L 7.359375 -5.65625 L 4.359375 -5.65625 L 4.359375 0 Z M 3.046875 0 "/></g></g></g><g fill="#231f20" fill-opacity="1"><g transform="translate(229.804831, 199.718936)"><g><path d="M 3.3125 0 L 3.3125 -2.421875 L -0.015625 -6.6875 L 1.5 -6.6875 L 3.96875 -3.421875 L 6.40625 -6.6875 L 7.90625 -6.6875 L 4.625 -2.421875 L 4.625 0 Z M 3.3125 0 "/></g></g></g></svg>